<?xml version="1.0" encoding="UTF-8"?>
<svg width="30px" height="30px" viewBox="0 0 30 30" version="1.1" xmlns="http://www.w3.org/2000/svg" xmlns:xlink="http://www.w3.org/1999/xlink">
    <!-- Generator: Sketch 49 (51002) - http://www.bohemiancoding.com/sketch -->
    <title>icon/business_group</title>
    <desc>Created with Sketch.</desc>
    <defs></defs>
    <g id="icon/business_group" stroke="none" stroke-width="1" fill="none" fill-rule="evenodd">
        <path d="M7.94166667,18.3441667 C7.58916667,18.135 7.1425,17.9658333 6.64666667,17.8533333 C6.64166667,17.8525 6.61166667,17.8441667 6.60583333,17.8433333 C6.4875,17.81 6.3875,17.7066667 6.36916667,17.5858333 C6.35083333,17.4633333 6.39416667,17.3391667 6.4975,17.2733333 L6.56166667,17.225 C7.02666667,16.9091667 7.36916667,16.44 7.52583333,15.9041667 C7.59333333,15.6833333 7.62666667,15.4566667 7.62666667,15.2283333 C7.62666667,13.895 6.54,12.8091667 5.205,12.8091667 C3.86916667,12.8091667 2.78333333,13.895 2.78333333,15.2283333 C2.78333333,15.4491667 2.815,15.6716667 2.87833333,15.89 C3.0375,16.445 3.39083333,16.9258333 3.87166667,17.2458333 C3.8775,17.2491667 3.90666667,17.2691667 3.91083333,17.2725 C4.0075,17.3441667 4.06416667,17.4725 4.04,17.5908333 C4.01666667,17.7091667 3.93583333,17.81 3.81833333,17.84 C3.8075,17.8416667 3.76833333,17.8508333 3.7575,17.8525 C2.7475,18.0783333 1.9575,18.5508333 1.72,19.0825 C1.29666667,19.9108333 0.955,21.5891667 0.789166667,22.5166667 C0.739166667,22.7858333 0.700833333,23.0166667 0.673333333,23.1875 C0.671666667,23.2025 0.6675,23.2175 0.663333333,23.2308333 C0.638333333,23.3133333 0.625,23.3875 0.625,23.4575 C0.625,24.3675 2.18166667,25.2025 4.24583333,25.4025 C4.46416667,25.4233333 4.6875,25.4383333 4.915,25.4441667 C5.25166667,25.4533333 5.5975,25.445 5.94916667,25.42 C6.12333333,25.4066667 6.27083333,25.5366667 6.28416667,25.7091667 C6.29583333,25.8816667 6.16666667,26.0316667 5.99416667,26.0433333 C5.72833333,26.0633333 5.4625,26.0725 5.205,26.0725 C5.10166667,26.0725 4.99916667,26.0716667 4.8975,26.0691667 C4.65583333,26.0625 4.4175,26.0466667 4.185,26.0241667 C1.72166667,25.7866667 0,24.7308333 0,23.4575 C0,23.33 0.02,23.2033333 0.06,23.0683333 C0.0875,22.895 0.125833333,22.6666667 0.175,22.4033333 C0.346666667,21.445 0.7025,19.6983333 1.15583333,18.8125 C1.425,18.2116667 2.10916667,17.7066667 3.07,17.3941667 C2.69666667,17.0275 2.4225,16.5691667 2.27833333,16.0633333 C2.1975,15.79 2.1575,15.5091667 2.1575,15.2283333 C2.1575,13.55 3.525,12.1841667 5.205,12.1841667 C6.88416667,12.1841667 8.25083333,13.55 8.25083333,15.2283333 C8.25083333,15.5175 8.20916667,15.805 8.125,16.0825 C7.97916667,16.58 7.705,17.0333333 7.33583333,17.395 C7.67916667,17.5075 7.9875,17.6441667 8.25833333,17.8058333 C8.26166667,17.8066667 8.29166667,17.825 8.29416667,17.8266667 L8.33,17.8483333 C8.47333333,17.945 8.5125,18.1383333 8.41666667,18.2816667 C8.32083333,18.4258333 8.12666667,18.465 7.98333333,18.3683333 L7.94166667,18.3441667 Z M25.0658333,23.4575 C25.0658333,24.7308333 23.345,25.7866667 20.8808333,26.0241667 C20.6483333,26.0466667 20.4108333,26.0625 20.1675,26.0691667 C20.0666667,26.0716667 19.965,26.0725 19.8616667,26.0725 C19.6033333,26.0725 19.3375,26.0633333 19.0725,26.0433333 C18.9,26.0316667 18.7708333,25.8816667 18.7841667,25.7091667 C18.7966667,25.5375 18.9491667,25.4066667 19.1183333,25.42 C19.4675,25.4458333 19.8158333,25.4533333 20.1491667,25.4441667 C20.3791667,25.4383333 20.6008333,25.4233333 20.8208333,25.4025 C22.885,25.2025 24.4408333,24.3675 24.4408333,23.4575 C24.4408333,23.3883333 24.4283333,23.3141667 24.4025,23.23 C24.3975,23.2158333 24.395,23.2016667 24.3916667,23.1875 C24.365,23.0158333 24.3266667,22.785 24.2775,22.5191667 C24.11,21.5883333 23.7675,19.9075 23.3533333,19.0966667 C23.1083333,18.5508333 22.3183333,18.0783333 21.285,17.8475 C21.1658333,17.8208333 21.0583333,17.7233333 21.0325,17.6025 C21.0083333,17.4833333 21.0408333,17.3558333 21.14,17.2841667 C21.1425,17.2825 21.1816667,17.2541667 21.1833333,17.2533333 C21.6775,16.925 22.03,16.4441667 22.1875,15.8916667 C22.2508333,15.6716667 22.2825,15.4491667 22.2825,15.2283333 C22.2825,13.895 21.1966667,12.8091667 19.8616667,12.8091667 C18.5266667,12.8091667 17.4391667,13.895 17.4391667,15.2283333 C17.4391667,15.4491667 17.4733333,15.6766667 17.5408333,15.9041667 C17.6975,16.4391667 18.04,16.9075 18.5041667,17.225 C18.5083333,17.2283333 18.5433333,17.2533333 18.5475,17.2566667 C18.66,17.3233333 18.7258333,17.4591667 18.7025,17.5883333 C18.6783333,17.7175 18.5833333,17.8233333 18.4541667,17.8441667 C17.9233333,17.9658333 17.4758333,18.135 17.1258333,18.3425 L17.0858333,18.3658333 C16.9425,18.4575 16.7475,18.4191667 16.6541667,18.2775 C16.56,18.1366667 16.5916667,17.9483333 16.7308333,17.8516667 C16.7383333,17.8466667 16.7758333,17.8241667 16.7833333,17.8191667 C17.0725,17.6483333 17.3875,17.5075 17.7325,17.3941667 C17.3583333,17.0275 17.0866667,16.5766667 16.9408333,16.08 C16.8566667,15.795 16.815,15.5091667 16.815,15.2283333 C16.815,13.55 18.1816667,12.1841667 19.8616667,12.1841667 C21.5416667,12.1841667 22.9083333,13.55 22.9083333,15.2283333 C22.9083333,15.5083333 22.8683333,15.7891667 22.7883333,16.0641667 C22.6441667,16.5691667 22.37,17.0283333 21.9966667,17.3958333 C22.9616667,17.7116667 23.6433333,18.2166667 23.9166667,18.8266667 C24.3608333,19.695 24.7191667,21.4433333 24.8916667,22.4066667 C24.9408333,22.6666667 24.9791667,22.8958333 25.0066667,23.0691667 C25.0458333,23.205 25.0658333,23.3316667 25.0658333,23.4575 Z M12.5291667,29.375 C9.63,29.375 7.68166667,28.2808333 7.68166667,27.2583333 C7.68166667,27.1875 7.69666667,27.1066667 7.725,27.015 C7.72916667,27.0008333 7.7325,26.985 7.735,26.9691667 C7.7625,26.7883333 7.805,26.5441667 7.85583333,26.2641667 C8.03416667,25.2791667 8.39916667,23.5 8.84083333,22.6333333 C9.0925,22.075 9.92166667,21.575 10.99,21.3333333 C11.0091667,21.33 11.0275,21.325 11.0391667,21.3208333 C11.1691667,21.3 11.265,21.1933333 11.2891667,21.0641667 C11.3125,20.9341667 11.2466667,20.7975 11.1325,20.7308333 C11.1283333,20.7266667 11.0933333,20.7016667 11.0883333,20.6983333 C10.595,20.3608333 10.2308333,19.8625 10.0641667,19.295 C9.99333333,19.0566667 9.9575,18.8158333 9.9575,18.5775 C9.9575,17.1616667 11.1116667,16.0091667 12.5291667,16.0091667 C13.9475,16.0091667 15.1016667,17.1616667 15.1016667,18.5775 C15.1016667,18.8133333 15.0683333,19.05 15,19.2808333 C14.8325,19.8691667 14.4575,20.3791667 13.9425,20.7216667 L13.8866667,20.7616667 C13.7883333,20.8341667 13.7566667,20.9625 13.7825,21.0808333 C13.8075,21.2008333 13.9158333,21.2983333 14.035,21.325 C15.1308333,21.5683333 15.9683333,22.0708333 16.2283333,22.6508333 C16.6683333,23.5083333 17.0283333,25.2816667 17.2041667,26.265 C17.2566667,26.545 17.2991667,26.7891667 17.3258333,26.9691667 C17.3283333,26.985 17.3316667,27.0008333 17.3358333,27.0158333 C17.365,27.105 17.3783333,27.1841667 17.3783333,27.2583333 C17.3783333,28.2808333 15.43,29.375 12.5291667,29.375 Z M17.8191667,26.1525 C17.6375,25.1375 17.2616667,23.295 16.7916667,22.3808333 C16.5016667,21.7325 15.7708333,21.1975 14.7491667,20.8708333 C15.1508333,20.4816667 15.4466667,19.9941667 15.6008333,19.4541667 C15.6841667,19.1675 15.7266667,18.8725 15.7266667,18.5775 C15.7266667,16.8166667 14.2925,15.3841667 12.5291667,15.3841667 C10.7675,15.3841667 9.3325,16.8166667 9.3325,18.5775 C9.3325,18.8766667 9.3775,19.1766667 9.46416667,19.4716667 C9.62,20.0008333 9.91333333,20.4816667 10.315,20.87 C9.29333333,21.1966667 8.56333333,21.7291667 8.27833333,22.3633333 C7.83,23.2416667 7.46666667,24.9083333 7.24083333,26.1525 C7.19166667,26.4283333 7.14833333,26.67 7.12083333,26.8533333 C7.07833333,26.9958333 7.05666667,27.1316667 7.05666667,27.2583333 C7.05666667,28.7958333 9.46166667,30 12.5291667,30 C15.5983333,30 18.0033333,28.7958333 18.0033333,27.2583333 C18.0033333,27.1275 17.9825,26.995 17.9408333,26.8533333 C17.9125,26.67 17.8708333,26.4275 17.8191667,26.1525 Z" id="Page-1" fill="#F5F7F9"></path>
    </g>
</svg>